<?xml version="1.0" ?><svg xmlns="http://www.w3.org/2000/svg" xmlns:xlink="http://www.w3.org/1999/xlink" version="1.1" id="Layer_1" viewBox="0 0 32 32" style="enable-background:new 0 0 32 32;" xml:space="preserve"><style type="text/css">
	.st0{fill:none;stroke:#000000;stroke-linecap:round;stroke-linejoin:round;stroke-miterlimit:10;}
</style><g><g><path class="st0" d="M29.4,15.1L4.8,19.3C4,19.4,3.2,18.9,3,18L1.1,7C1,6.2,1.6,5.4,2.4,5.2L27,1c0.8-0.1,1.6,0.4,1.8,1.3l1.9,11    C30.8,14.1,30.3,14.9,29.4,15.1z"/><path class="st0" d="M14.1,9.6c0.2,0.5,0.7,0.8,1.2,0.7l0.6-0.1"/><path class="st0" d="M17.8,11.1C17.8,11,17.8,11,17.8,11.1c-0.1-0.7-0.7-1.1-1.3-1H16"/><g><path class="st0" d="M14.1,9.6c0-0.1-0.1-0.2-0.1-0.3c0-0.6,0.4-1.2,1-1.3l0.8-0.1h0.1l1.3-0.2"/><path class="st0" d="M14.6,12.7l1.9-0.3h0.3c0.6-0.1,1-0.6,0.9-1.2"/><line class="st0" x1="15.6" y1="6.6" x2="15.8" y2="7.9"/><line class="st0" x1="16.6" y1="12.4" x2="16.8" y2="13.6"/></g><path class="st0" d="M20.9,9.3c0.2,1.2-0.1,2.5-0.7,3.5c-0.2,0.3-0.4,0.6-0.7,0.9c-0.7,0.7-1.7,1.3-2.8,1.5    c-1.1,0.2-2.2,0-3.1-0.5c-0.3-0.2-0.6-0.4-0.9-0.6c-0.9-0.7-1.6-1.8-1.8-3.1c-0.5-2.7,1.4-5.3,4.1-5.8C17.8,4.7,20.4,6.6,20.9,9.3    z"/><circle class="st0" cx="25.4" cy="8.5" r="1.5"/><circle class="st0" cx="6.4" cy="11.8" r="1.5"/></g><g><path class="st0" d="M30.9,25.1c0,3.3-2.6,5.9-5.9,5.9c-1.3,0-2.5-0.4-3.5-1.1c-0.6-0.4-1.1-0.9-1.5-1.5c-0.1-0.2-0.2-0.4-0.3-0.6    c-0.4-0.8-0.6-1.7-0.6-2.6c0-0.2,0-0.4,0-0.6c0.1-1.2,0.6-2.3,1.4-3.2c0,0,0,0,0.1-0.1c0.7-0.8,1.5-1.3,2.5-1.7    c0.6-0.2,1.3-0.3,1.9-0.3C28.2,19.2,30.9,21.9,30.9,25.1z"/><g><path class="st0" d="M26.6,23h-1.3h-0.8c-0.6,0-1.1,0.5-1.1,1.1l0,0c0,0.6,0.5,1.1,1.1,1.1h1"/><path class="st0" d="M25.5,25.1c0.6,0,1.1,0.5,1.1,1.1l0,0c0,0.6-0.5,1.1-1.1,1.1h-2.1"/></g><line class="st0" x1="25.3" y1="21.7" x2="25.3" y2="23"/><line class="st0" x1="25.3" y1="27.3" x2="25.3" y2="28.5"/></g><g><path class="st0" d="M11.7,31H3.2C2.5,31,2,30.5,2,29.8v-0.6C2,28.6,2.5,28,3.2,28h8.5c0.6,0,1.2,0.5,1.2,1.2v0.6    C12.9,30.5,12.4,31,11.7,31z"/><path class="st0" d="M16,28.1H7.4c-0.6,0-1.2-0.5-1.2-1.2v-0.6c0-0.6,0.5-1.2,1.2-1.2H16c0.6,0,1.2,0.5,1.2,1.2v0.6    C17.1,27.6,16.6,28.1,16,28.1z"/><path class="st0" d="M11,25.2H2.4c-0.6,0-1.2-0.5-1.2-1.2v-0.6c0-0.6,0.5-1.2,1.2-1.2H11c0.6,0,1.2,0.5,1.2,1.2V24    C12.1,24.7,11.6,25.2,11,25.2z"/></g></g></svg>