<?xml version="1.0" encoding="UTF-8"?>
<svg id="Layer_1" data-name="Layer 1" xmlns="http://www.w3.org/2000/svg" viewBox="0 0 512 512">
  <defs>
    <style>
      .cls-1 {
        fill: #f87c9d;
      }

      .cls-1, .cls-2, .cls-3, .cls-4 {
        stroke-width: 0px;
      }

      .cls-2 {
        fill: #293843;
      }

      .cls-3 {
        fill: #283a42;
      }

      .cls-4 {
        fill: #ff739d;
      }
    </style>
  </defs>
  <g>
    <path class="cls-4" d="M96.66,240.41c-1.19-1.19-2.59-2.13-4.2-2.82-1.61-.68-3.33-1.03-5.18-1.03-1.3,0-2.56.18-3.76.54-1.21.36-2.34.87-3.39,1.52-1.05.65-1.98,1.44-2.79,2.38-.81.94-1.45,1.99-1.92,3.14-1.66,3.94-4.09,7-7.29,9.18-3.2,2.19-7.42,3.28-12.65,3.28s-9.22-.93-12.71-2.79c-3.49-1.86-6.33-4.33-8.53-7.39-2.2-3.07-3.8-6.57-4.8-10.49-.99-3.92-1.49-7.94-1.49-12.06,0-2.89.21-5.74.62-8.56.42-2.82,1.07-5.5,1.98-8.05.9-2.55,2.07-4.9,3.49-7.07,1.43-2.17,3.16-4.04,5.2-5.61,2.04-1.57,4.41-2.8,7.1-3.68s5.73-1.33,9.13-1.33c2.31,0,4.46.27,6.45.81,1.99.54,3.79,1.32,5.42,2.33,1.63,1.01,3.06,2.21,4.31,3.6,1.25,1.39,2.28,2.95,3.12,4.69,1.05,2.2,2.61,3.99,4.69,5.37,2.08,1.37,4.4,2.06,6.96,2.06,1.77,0,3.45-.33,5.04-1,1.59-.67,2.96-1.59,4.12-2.76,1.16-1.17,2.08-2.54,2.76-4.09.69-1.55,1.03-3.21,1.03-4.98,0-1.3-.18-2.55-.54-3.74-.36-1.19-.87-2.29-1.52-3.3-2.24-3.29-4.88-6.21-7.91-8.78-3.03-2.56-6.37-4.73-10-6.5s-7.47-3.12-11.51-4.04c-4.05-.92-8.18-1.38-12.41-1.38-8.99,0-16.94,1.38-23.84,4.14-6.9,2.76-12.69,6.62-17.37,11.57-4.68,4.95-8.23,10.85-10.65,17.72-2.42,6.86-3.63,14.4-3.63,22.6s1.21,15.55,3.63,22.27c2.42,6.72,5.97,12.47,10.65,17.26,4.68,4.79,10.47,8.51,17.37,11.16,6.9,2.66,14.85,3.98,23.84,3.98,4.73,0,9.24-.5,13.52-1.49,4.28-.99,8.25-2.42,11.92-4.28,3.67-1.86,6.98-4.14,9.94-6.83,2.96-2.69,5.47-5.73,7.53-9.13.68-1.01,1.21-2.12,1.57-3.33s.54-2.48.54-3.82c0-1.81-.34-3.5-1.03-5.09-.69-1.59-1.63-2.98-2.82-4.17Z"/>
    <path class="cls-2" d="M420.21,258.37c-.94-.96-2.15-1.7-3.63-2.22-1.48-.52-3.27-.79-5.37-.79h-45.57v-23.35h37.06c2.1,0,3.89-.25,5.39-.76,1.5-.51,2.71-1.22,3.63-2.14.92-.92,1.6-2.02,2.03-3.3.43-1.28.65-2.68.65-4.2s-.22-2.91-.65-4.17c-.43-1.26-1.11-2.36-2.03-3.28-.92-.92-2.13-1.63-3.63-2.14-1.5-.5-3.3-.76-5.39-.76h-37.06v-19.61h43.89c2.1,0,3.89-.26,5.39-.79,1.5-.52,2.72-1.26,3.66-2.22.94-.96,1.63-2.08,2.06-3.36.43-1.28.65-2.68.65-4.2s-.22-2.93-.65-4.23c-.43-1.3-1.12-2.42-2.06-3.36-.94-.94-2.16-1.67-3.66-2.19-1.5-.52-3.3-.78-5.39-.78h-55.27c-5.74,0-10,1.47-12.76,4.42-2.76,2.94-4.14,7.63-4.14,14.06v69.03c0,3.22.34,5.99,1.03,8.32.69,2.33,1.73,4.24,3.12,5.74,1.39,1.5,3.14,2.61,5.26,3.33s4.61,1.08,7.5,1.08h56.95c2.1,0,3.88-.26,5.37-.78,1.48-.52,2.69-1.25,3.63-2.19.94-.94,1.62-2.06,2.06-3.36.43-1.3.65-2.71.65-4.23s-.22-2.92-.65-4.2c-.43-1.28-1.12-2.4-2.06-3.36Z"/>
    <path class="cls-2" d="M511.38,176.9c-.42-1.34-1.08-2.48-2.01-3.44-.92-.96-2.15-1.7-3.68-2.22-1.54-.52-3.4-.78-5.61-.78h-63.67c-2.24,0-4.12.26-5.63.78-1.52.53-2.74,1.27-3.66,2.22-.92.96-1.59,2.1-2.01,3.44-.41,1.34-.62,2.8-.62,4.39s.19,3.11.57,4.44.99,2.49,1.84,3.47c.85.98,1.95,1.73,3.3,2.25,1.35.52,3.01.78,4.96.78h18.42v71.09c0,4.77,1.26,8.34,3.79,10.73s6.01,3.58,10.46,3.58,7.94-1.19,10.49-3.58c2.55-2.38,3.82-5.96,3.82-10.73v-71.09h19.18c1.95,0,3.6-.26,4.96-.78,1.36-.52,2.46-1.27,3.31-2.25.85-.98,1.46-2.13,1.84-3.47.38-1.34.57-2.82.57-4.44s-.21-3.05-.62-4.39Z"/>
    <path class="cls-2" d="M303.82,253.66h-61.83c-.1,0-.2.01-.29.01l-6.14,21.57c1.85,1.21,4.06,1.93,6.44,1.93h61.83c6.49,0,11.76-5.26,11.76-11.76s-5.26-11.76-11.76-11.76Z"/>
    <path class="cls-2" d="M303.82,213.28h-50.62l-6.7,23.51h57.31c6.49,0,11.76-5.26,11.76-11.76s-5.26-11.76-11.76-11.76Z"/>
    <path class="cls-2" d="M303.82,169.14h-71.1c-5.98,0-10.91,4.47-11.65,10.26-.03.11-.08.21-.11.32l-13.49,55-13.33-52.23c-.47-1.84-1.22-3.57-2.25-5.18-1.03-1.61-2.27-3-3.71-4.17-1.45-1.17-3.07-2.09-4.88-2.76-1.81-.67-3.7-1-5.69-1s-3.81.33-5.58.98c-1.77.65-3.37,1.54-4.8,2.68-1.43,1.14-2.65,2.48-3.66,4.04-1.01,1.55-1.75,3.25-2.22,5.09l-13.6,51.69-13-54.02c-.36-1.48-.95-2.86-1.76-4.14-.81-1.28-1.8-2.39-2.95-3.33-1.16-.94-2.46-1.67-3.9-2.2-1.45-.52-2.96-.78-4.55-.78-1.88,0-3.64.35-5.28,1.06-1.64.7-3.07,1.67-4.28,2.9-1.21,1.23-2.17,2.67-2.87,4.31-.7,1.64-1.06,3.39-1.06,5.23,0,1.16.14,2.31.43,3.47l21.46,79.05c.51,1.73,1.26,3.34,2.28,4.82,1.01,1.48,2.22,2.77,3.63,3.85,1.41,1.08,2.97,1.92,4.69,2.52,1.72.59,3.53.89,5.45.89s3.8-.32,5.55-.95c1.75-.63,3.34-1.51,4.77-2.63,1.43-1.12,2.65-2.45,3.66-3.98,1.01-1.54,1.75-3.21,2.22-5.01l15.06-59.66h.43l15.5,59.87c.47,1.77,1.2,3.41,2.19,4.93.99,1.52,2.19,2.83,3.58,3.93,1.39,1.1,2.95,1.96,4.69,2.57,1.73.61,3.56.92,5.47.92s3.67-.3,5.36-.89c1.7-.6,3.23-1.42,4.61-2.47,1.37-1.05,2.56-2.29,3.55-3.74.99-1.44,1.72-3.03,2.19-4.77l5.54-20.03,14.64-52.91h58.77c6.49,0,11.76-5.26,11.76-11.76s-5.26-11.76-11.76-11.76Z"/>
  </g>
  <g>
    <g>
      <rect class="cls-1" x="58.81" y="322.13" width="100.95" height="12.27" rx="1.15" ry="1.15"/>
      <rect class="cls-1" x="352.23" y="322.13" width="100.95" height="12.27" rx="1.15" ry="1.15"/>
    </g>
    <g>
      <path class="cls-3" d="M188.98,309.47c0-.63.1-1.2.29-1.71.19-.51.47-.95.84-1.31.36-.37.8-.65,1.32-.85.51-.2,1.09-.3,1.75-.3s1.24.1,1.75.3c.51.2.95.48,1.31.85.36.36.63.8.83,1.31.19.51.29,1.08.29,1.71v26.75h13.79c.61,0,1.19.08,1.72.23.53.15,1,.38,1.39.67s.71.66.94,1.09.35.94.35,1.52-.12,1.06-.35,1.5-.54.8-.94,1.09c-.4.29-.86.52-1.39.67s-1.1.23-1.72.23h-17.17c-.76,0-1.44-.08-2.04-.24-.61-.16-1.13-.43-1.57-.81s-.77-.88-1.01-1.5c-.24-.62-.36-1.39-.36-2.31v-28.9Z"/>
      <path class="cls-3" d="M241.87,334.24h-14.04l-2.38,6.7c-.14.38-.34.74-.59,1.07-.25.33-.54.61-.87.85-.33.24-.7.42-1.1.56-.4.13-.82.2-1.26.2-.56,0-1.09-.11-1.57-.32-.49-.21-.91-.5-1.28-.86-.37-.36-.65-.79-.86-1.28-.21-.49-.32-1.01-.32-1.57,0-.51.09-1,.27-1.46l11.48-29.51c.37-.95.93-1.68,1.68-2.21.75-.53,1.65-.79,2.72-.79h1.96c.49,0,.96.05,1.42.14.46.1.89.27,1.3.51s.77.57,1.1.99c.33.42.63.94.88,1.58l11.43,29.28c.18.46.27.95.27,1.46,0,.56-.11,1.09-.32,1.57-.21.49-.5.91-.86,1.28s-.79.65-1.29.86c-.49.21-1.01.32-1.57.32-.45,0-.87-.07-1.27-.2s-.76-.32-1.09-.56c-.33-.24-.62-.52-.87-.85-.25-.33-.45-.68-.59-1.07l-2.38-6.7ZM230.1,328.05h9.43l-4.67-13.19-4.76,13.19Z"/>
      <path class="cls-3" d="M271.42,305.68c.85,0,1.77.01,2.76.03,1,.02,1.99.08,2.99.17.99.1,1.94.25,2.84.45.9.2,1.68.5,2.33.88.69.41,1.34.89,1.96,1.43.61.54,1.15,1.17,1.61,1.87.46.7.83,1.48,1.09,2.32.27.85.4,1.77.4,2.77,0,.84-.1,1.64-.31,2.39-.2.75-.49,1.44-.86,2.07-.37.63-.81,1.21-1.31,1.73-.51.52-1.07.97-1.68,1.35.88.36,1.69.83,2.43,1.42.74.59,1.37,1.26,1.9,2.01.53.75.94,1.57,1.24,2.45.29.88.44,1.79.44,2.73s-.13,1.89-.38,2.82c-.26.93-.64,1.83-1.14,2.68-.51.85-1.13,1.64-1.88,2.37-.75.73-1.61,1.36-2.59,1.89s-2.07.95-3.27,1.25-2.52.45-3.94.45h-13.81c-.68,0-1.32-.13-1.91-.38-.6-.26-1.12-.6-1.57-1.04-.45-.44-.8-.94-1.06-1.53-.26-.58-.38-1.21-.38-1.87v-27.71c0-.69.13-1.34.4-1.95.27-.61.63-1.14,1.09-1.59.46-.45,1-.81,1.62-1.08.62-.26,1.28-.39,1.99-.39h8.99ZM272.82,320.99c1.16,0,2.15-.11,2.96-.32.81-.21,1.46-.51,1.96-.9.5-.39.86-.86,1.09-1.4.22-.54.34-1.16.34-1.83,0-.9-.16-1.63-.49-2.19-.33-.56-.77-1-1.34-1.32s-1.24-.54-2.02-.64c-.78-.11-1.6-.16-2.49-.16h-7.16v8.78h7.16ZM275.34,336.69c.91,0,1.71-.13,2.41-.38.7-.26,1.28-.61,1.75-1.07s.82-.99,1.07-1.6c.24-.61.36-1.29.36-2.02,0-.83-.19-1.54-.58-2.13-.38-.59-.89-1.07-1.52-1.44-.63-.37-1.33-.64-2.12-.81-.79-.17-1.58-.25-2.39-.25h-8.66v9.7h9.68Z"/>
      <path class="cls-3" d="M301.2,332.33c.77,1.51,1.82,2.69,3.15,3.53,1.33.85,2.94,1.27,4.82,1.27.5,0,1.03-.02,1.6-.05.57-.03,1.13-.1,1.69-.21.56-.11,1.09-.26,1.6-.45s.96-.45,1.35-.77c.39-.32.7-.71.94-1.18.24-.47.36-1.02.36-1.66s-.15-1.24-.44-1.72c-.29-.48-.7-.9-1.22-1.25-.52-.35-1.13-.65-1.84-.89s-1.48-.47-2.31-.68c-.83-.21-1.71-.41-2.62-.6-.92-.19-1.84-.41-2.77-.65-1.43-.38-2.82-.84-4.15-1.37-1.33-.53-2.51-1.21-3.52-2.05-1.02-.83-1.83-1.85-2.44-3.06s-.91-2.69-.91-4.45c0-1.28.19-2.45.58-3.51.38-1.06.92-2.02,1.59-2.86.68-.85,1.48-1.58,2.39-2.22.91-.63,1.9-1.16,2.97-1.57,1.06-.42,2.17-.73,3.33-.93,1.16-.2,2.31-.31,3.47-.31,1.56,0,3.07.14,4.51.43,1.45.29,2.78.74,4,1.35,1.22.61,2.3,1.38,3.24,2.3.94.93,1.68,2.03,2.22,3.29.1.26.18.52.25.79.06.27.1.55.1.85,0,.56-.09,1.08-.27,1.56-.18.47-.43.88-.76,1.23-.33.35-.72.61-1.18.81s-.97.29-1.54.29c-.45,0-.88-.07-1.29-.2-.41-.13-.79-.32-1.13-.55-.35-.23-.65-.51-.92-.84-.27-.33-.5-.68-.69-1.07-.56-1.14-1.43-1.97-2.59-2.51-1.17-.53-2.57-.8-4.2-.8-.69,0-1.39.07-2.08.21-.7.14-1.33.37-1.89.68-.56.31-1.02.71-1.38,1.2-.36.49-.54,1.08-.54,1.77,0,.47.05.89.16,1.25s.31.68.61.98c.3.29.71.57,1.23.83.52.26,1.19.52,2.03.8.83.28,1.84.57,3.02.89,1.18.32,2.57.68,4.17,1.09.47.12,1.08.26,1.81.44.73.18,1.5.43,2.31.75.81.32,1.63.73,2.46,1.23.83.5,1.57,1.13,2.23,1.88.66.76,1.19,1.66,1.6,2.72.41,1.06.61,2.29.61,3.72,0,1.74-.35,3.35-1.04,4.83-.69,1.48-1.71,2.76-3.06,3.83-1.35,1.08-3.02,1.92-5.02,2.53-2,.61-4.3.91-6.91.91-1.69,0-3.33-.19-4.93-.57-1.59-.38-3.06-.94-4.41-1.69-1.34-.75-2.53-1.68-3.56-2.8-1.03-1.12-1.83-2.42-2.39-3.89-.1-.26-.19-.52-.25-.79-.06-.27-.1-.55-.1-.85,0-.56.1-1.08.3-1.56.2-.47.48-.88.84-1.23.36-.35.78-.61,1.26-.81.48-.19,1-.29,1.57-.29.91,0,1.71.25,2.4.75.69.5,1.23,1.13,1.61,1.9Z"/>
    </g>
  </g>
</svg>