<?xml version="1.0" encoding="UTF-8"?>
<svg id="Layer_1" data-name="Layer 1" xmlns="http://www.w3.org/2000/svg" viewBox="0 0 256 256">
  <defs>
    <style>
      .cls-1 {
        fill: #f87c9d;
      }

      .cls-1, .cls-2, .cls-3, .cls-4 {
        stroke-width: 0px;
      }

      .cls-2 {
        fill: #293843;
      }

      .cls-3 {
        fill: #283a42;
      }

      .cls-4 {
        fill: #ff739d;
      }
    </style>
  </defs>
  <g>
    <path class="cls-4" d="M48.33,120.2c-.6-.6-1.3-1.07-2.1-1.41-.8-.34-1.67-.51-2.59-.51-.65,0-1.28.09-1.88.27-.61.18-1.17.43-1.69.76-.52.32-.99.72-1.4,1.19-.41.47-.73.99-.96,1.57-.83,1.97-2.05,3.5-3.64,4.59-1.6,1.09-3.71,1.64-6.33,1.64s-4.61-.46-6.35-1.4c-1.74-.93-3.17-2.16-4.27-3.7-1.1-1.54-1.9-3.28-2.4-5.24-.5-1.96-.75-3.97-.75-6.03,0-1.45.1-2.87.31-4.28.21-1.41.54-2.75.99-4.02.45-1.27,1.03-2.45,1.75-3.54.71-1.08,1.58-2.02,2.6-2.8,1.02-.78,2.2-1.4,3.55-1.84s2.87-.66,4.57-.66c1.16,0,2.23.14,3.22.41.99.27,1.9.66,2.71,1.16.81.51,1.53,1.11,2.15,1.8.62.7,1.14,1.48,1.56,2.34.52,1.1,1.3,2,2.34,2.68,1.04.69,2.2,1.03,3.48,1.03.88,0,1.72-.17,2.52-.5.79-.33,1.48-.79,2.06-1.38s1.04-1.27,1.38-2.05c.34-.78.52-1.61.52-2.49,0-.65-.09-1.27-.27-1.87-.18-.6-.43-1.15-.76-1.65-1.12-1.64-2.44-3.11-3.96-4.39-1.52-1.28-3.18-2.37-5-3.25s-3.73-1.56-5.76-2.02c-2.02-.46-4.09-.69-6.2-.69-4.5,0-8.47.69-11.92,2.07-3.45,1.38-6.34,3.31-8.68,5.78-2.34,2.47-4.11,5.43-5.32,8.86-1.21,3.43-1.82,7.2-1.82,11.3s.6,7.78,1.82,11.14c1.21,3.36,2.98,6.24,5.32,8.63,2.34,2.39,5.23,4.25,8.68,5.58,3.45,1.33,7.42,1.99,11.92,1.99,2.37,0,4.62-.25,6.76-.74,2.14-.5,4.13-1.21,5.96-2.14,1.83-.93,3.49-2.07,4.97-3.41,1.48-1.35,2.74-2.87,3.77-4.56.34-.51.6-1.06.79-1.67s.27-1.24.27-1.91c0-.9-.17-1.75-.51-2.55-.34-.79-.81-1.49-1.41-2.09Z"/>
    <path class="cls-2" d="M210.11,129.19c-.47-.48-1.08-.85-1.82-1.11-.74-.26-1.63-.39-2.68-.39h-22.78v-11.68h18.53c1.05,0,1.95-.13,2.7-.38.75-.25,1.35-.61,1.82-1.07s.8-1.01,1.02-1.65c.22-.64.32-1.34.32-2.1s-.11-1.45-.32-2.09c-.22-.63-.56-1.18-1.02-1.64s-1.07-.82-1.82-1.07c-.75-.25-1.65-.38-2.7-.38h-18.53v-9.81h21.94c1.05,0,1.95-.13,2.7-.39.75-.26,1.36-.63,1.83-1.11.47-.48.81-1.04,1.03-1.68.22-.64.33-1.34.33-2.1s-.11-1.46-.33-2.11c-.22-.65-.56-1.21-1.03-1.68-.47-.47-1.08-.84-1.83-1.1-.75-.26-1.65-.39-2.7-.39h-27.63c-2.87,0-5,.74-6.38,2.21s-2.07,3.82-2.07,7.03v34.51c0,1.61.17,2.99.51,4.16.34,1.17.86,2.12,1.56,2.87.69.75,1.57,1.31,2.63,1.67s2.31.54,3.75.54h28.47c1.05,0,1.94-.13,2.68-.39.74-.26,1.35-.63,1.82-1.1.47-.47.81-1.03,1.03-1.68.22-.65.32-1.36.32-2.11s-.11-1.46-.32-2.1c-.22-.64-.56-1.2-1.03-1.68Z"/>
    <path class="cls-2" d="M255.69,88.45c-.21-.67-.54-1.24-1-1.72-.46-.48-1.07-.85-1.84-1.11-.77-.26-1.7-.39-2.8-.39h-31.83c-1.12,0-2.06.13-2.82.39-.76.26-1.37.63-1.83,1.11-.46.48-.79,1.05-1,1.72-.21.67-.31,1.4-.31,2.19s.1,1.55.28,2.22.5,1.25.92,1.73c.42.49.98.86,1.65,1.12s1.5.39,2.48.39h9.21v35.55c0,2.38.63,4.17,1.9,5.36s3.01,1.79,5.23,1.79,3.97-.6,5.24-1.79c1.27-1.19,1.91-2.98,1.91-5.36v-35.55h9.59c.98,0,1.8-.13,2.48-.39.68-.26,1.23-.64,1.65-1.12.42-.49.73-1.07.92-1.73.19-.67.28-1.41.28-2.22s-.1-1.53-.31-2.19Z"/>
    <path class="cls-2" d="M151.91,126.83h-30.91s-.1,0-.15,0l-3.07,10.79c.92.61,2.03.96,3.22.96h30.91c3.25,0,5.88-2.63,5.88-5.88s-2.63-5.88-5.88-5.88Z"/>
    <path class="cls-2" d="M151.91,106.64h-25.31l-3.35,11.76h28.66c3.25,0,5.88-2.63,5.88-5.88s-2.63-5.88-5.88-5.88Z"/>
    <path class="cls-2" d="M151.91,84.57h-35.55c-2.99,0-5.46,2.24-5.83,5.13-.01.05-.04.1-.05.16l-6.75,27.5-6.66-26.12c-.24-.92-.61-1.78-1.12-2.59-.52-.8-1.13-1.5-1.86-2.09-.72-.59-1.54-1.05-2.44-1.38s-1.85-.5-2.84-.5-1.91.16-2.79.49-1.68.77-2.4,1.34c-.71.57-1.32,1.24-1.83,2.02-.51.78-.88,1.62-1.11,2.55l-6.8,25.85-6.5-27.01c-.18-.74-.47-1.43-.88-2.07-.41-.64-.9-1.2-1.48-1.67-.58-.47-1.23-.84-1.95-1.1-.72-.26-1.48-.39-2.28-.39-.94,0-1.82.18-2.64.53s-1.54.84-2.14,1.45c-.61.61-1.08,1.33-1.44,2.15-.35.82-.53,1.69-.53,2.61,0,.58.07,1.16.22,1.73l10.73,39.53c.25.87.63,1.67,1.14,2.41.51.74,1.11,1.38,1.81,1.92.7.54,1.49.96,2.34,1.26.86.3,1.77.45,2.72.45s1.9-.16,2.78-.47c.88-.32,1.67-.75,2.38-1.31.71-.56,1.32-1.22,1.83-1.99.51-.77.88-1.6,1.11-2.51l7.53-29.83h.22l7.75,29.94c.23.89.6,1.71,1.1,2.47.5.76,1.09,1.41,1.79,1.96.7.55,1.48.98,2.34,1.29s1.78.46,2.74.46,1.83-.15,2.68-.45c.85-.3,1.62-.71,2.3-1.23.69-.52,1.28-1.15,1.77-1.87.5-.72.86-1.52,1.1-2.38l2.77-10.02,7.32-26.46h29.38c3.25,0,5.88-2.63,5.88-5.88s-2.63-5.88-5.88-5.88Z"/>
  </g>
  <g>
    <g>
      <rect class="cls-1" x="29.41" y="161.07" width="50.48" height="6.13" rx="1.15" ry="1.15"/>
      <rect class="cls-1" x="176.12" y="161.07" width="50.48" height="6.13" rx="1.15" ry="1.15"/>
    </g>
    <g>
      <path class="cls-3" d="M94.49,154.73c0-.31.05-.6.14-.85.1-.26.24-.48.42-.66.18-.18.4-.32.66-.42s.55-.15.87-.15.62.05.87.15.47.24.65.42c.18.18.32.4.41.66.1.26.14.54.14.85v13.37h6.89c.31,0,.59.04.86.12s.5.19.7.34.36.33.47.55.17.47.17.76-.06.53-.17.75-.27.4-.47.55c-.2.15-.43.26-.7.34s-.55.12-.86.12h-8.58c-.38,0-.72-.04-1.02-.12-.3-.08-.56-.21-.78-.4s-.39-.44-.5-.75c-.12-.31-.18-.7-.18-1.16v-14.45Z"/>
      <path class="cls-3" d="M120.93,167.12h-7.02l-1.19,3.35c-.07.19-.17.37-.29.53-.12.16-.27.3-.44.42-.17.12-.35.21-.55.28-.2.07-.41.1-.63.1-.28,0-.54-.05-.79-.16-.24-.11-.46-.25-.64-.43-.18-.18-.33-.4-.43-.64-.11-.24-.16-.51-.16-.79,0-.26.04-.5.13-.73l5.74-14.76c.19-.47.47-.84.84-1.1.37-.26.83-.39,1.36-.39h.98c.24,0,.48.02.71.07s.45.13.65.25.39.29.55.49c.17.21.31.47.44.79l5.71,14.64c.09.23.13.47.13.73,0,.28-.05.54-.16.79-.11.24-.25.46-.43.64s-.4.33-.64.43c-.25.11-.51.16-.78.16-.22,0-.44-.03-.63-.1s-.38-.16-.55-.28c-.17-.12-.31-.26-.44-.42-.12-.16-.22-.34-.29-.53l-1.19-3.35ZM115.05,164.03h4.71l-2.33-6.6-2.38,6.6Z"/>
      <path class="cls-3" d="M135.71,152.84c.42,0,.88,0,1.38.01s1,.04,1.49.09.97.12,1.42.23c.45.1.84.25,1.17.44.35.2.67.44.98.71.31.27.58.58.81.94.23.35.41.74.55,1.16.13.42.2.88.2,1.38,0,.42-.05.82-.15,1.2-.1.37-.25.72-.43,1.04s-.4.6-.66.86c-.25.26-.53.49-.84.68.44.18.85.42,1.21.71.37.29.69.63.95,1,.27.37.47.78.62,1.22.15.44.22.9.22,1.36s-.06.94-.19,1.41c-.13.47-.32.91-.57,1.34-.25.43-.57.82-.94,1.19-.37.37-.81.68-1.3.95s-1.04.47-1.64.62-1.26.23-1.97.23h-6.9c-.34,0-.66-.06-.96-.19-.3-.13-.56-.3-.78-.52-.22-.22-.4-.47-.53-.76-.13-.29-.19-.6-.19-.94v-13.85c0-.35.07-.67.2-.97.13-.3.32-.57.55-.8.23-.23.5-.41.81-.54.31-.13.64-.2.99-.2h4.49ZM136.41,160.49c.58,0,1.08-.05,1.48-.16.4-.11.73-.26.98-.45.25-.2.43-.43.54-.7.11-.27.17-.58.17-.92,0-.45-.08-.81-.24-1.09-.16-.28-.39-.5-.67-.66s-.62-.27-1.01-.32c-.39-.05-.8-.08-1.24-.08h-3.58v4.39h3.58ZM137.67,168.35c.45,0,.86-.06,1.21-.19.35-.13.64-.31.87-.53s.41-.49.53-.8c.12-.31.18-.64.18-1.01,0-.42-.1-.77-.29-1.07-.19-.29-.44-.53-.76-.72-.31-.19-.67-.32-1.06-.4-.39-.08-.79-.13-1.2-.13h-4.33v4.85h4.84Z"/>
      <path class="cls-3" d="M150.6,166.17c.38.76.91,1.34,1.57,1.77.67.42,1.47.63,2.41.63.25,0,.52,0,.8-.02.28-.02.57-.05.84-.11.28-.05.55-.13.8-.23s.48-.22.68-.38c.19-.16.35-.36.47-.59.12-.23.18-.51.18-.83s-.07-.62-.22-.86c-.15-.24-.35-.45-.61-.62-.26-.18-.57-.32-.92-.45s-.74-.24-1.16-.34c-.42-.11-.85-.21-1.31-.3-.46-.1-.92-.2-1.39-.33-.72-.19-1.41-.42-2.07-.69-.67-.27-1.25-.61-1.76-1.02-.51-.42-.92-.93-1.22-1.53s-.46-1.35-.46-2.22c0-.64.1-1.23.29-1.76.19-.53.46-1.01.8-1.43.34-.42.74-.79,1.2-1.11.46-.32.95-.58,1.48-.79s1.09-.36,1.67-.47c.58-.1,1.16-.15,1.73-.15.78,0,1.53.07,2.26.22.72.14,1.39.37,2,.67.61.3,1.15.69,1.62,1.15.47.46.84,1.01,1.11,1.65.05.13.09.26.12.39.03.13.05.28.05.42,0,.28-.04.54-.13.78-.09.24-.22.44-.38.61-.16.17-.36.31-.59.4s-.49.14-.77.14c-.22,0-.44-.03-.64-.1-.2-.07-.39-.16-.57-.27-.17-.12-.33-.25-.46-.42-.13-.16-.25-.34-.35-.53-.28-.57-.71-.99-1.3-1.25s-1.28-.4-2.1-.4c-.35,0-.69.04-1.04.11-.35.07-.66.18-.95.34-.28.16-.51.36-.69.6-.18.24-.27.54-.27.88,0,.24.03.44.08.62s.16.34.31.49c.15.15.35.28.61.41.26.13.6.26,1.01.4.42.14.92.29,1.51.45.59.16,1.28.34,2.08.55.24.06.54.13.9.22.36.09.75.21,1.16.37s.82.36,1.23.61c.41.25.78.56,1.11.94s.6.83.8,1.36c.2.53.31,1.15.31,1.86,0,.87-.17,1.68-.52,2.41-.35.74-.86,1.38-1.53,1.92-.68.54-1.51.96-2.51,1.26-1,.3-2.15.46-3.46.46-.85,0-1.67-.09-2.46-.28-.8-.19-1.53-.47-2.2-.85-.67-.37-1.27-.84-1.78-1.4-.52-.56-.91-1.21-1.2-1.94-.05-.13-.09-.26-.12-.39-.03-.13-.05-.28-.05-.42,0-.28.05-.54.15-.78.1-.24.24-.44.42-.61.18-.17.39-.31.63-.4.24-.1.5-.14.78-.14.45,0,.85.12,1.2.37.35.25.61.57.81.95Z"/>
    </g>
  </g>
</svg>