<?xml version="1.0" encoding="UTF-8"?>
<svg id="Layer_1" data-name="Layer 1" xmlns="http://www.w3.org/2000/svg" viewBox="0 0 192 192">
  <defs>
    <style>
      .cls-1 {
        fill: #f87c9d;
      }

      .cls-1, .cls-2, .cls-3, .cls-4 {
        stroke-width: 0px;
      }

      .cls-2 {
        fill: #293843;
      }

      .cls-3 {
        fill: #283a42;
      }

      .cls-4 {
        fill: #ff739d;
      }
    </style>
  </defs>
  <g>
    <path class="cls-4" d="M36.25,90.15c-.45-.45-.97-.8-1.57-1.06-.6-.26-1.25-.39-1.94-.39-.49,0-.96.07-1.41.2-.45.14-.88.32-1.27.57-.39.24-.74.54-1.05.89-.3.35-.55.74-.72,1.18-.62,1.48-1.53,2.62-2.73,3.44s-2.78,1.23-4.74,1.23-3.46-.35-4.76-1.05c-1.31-.7-2.37-1.62-3.2-2.77-.83-1.15-1.43-2.46-1.8-3.93-.37-1.47-.56-2.98-.56-4.52,0-1.08.08-2.15.23-3.21.16-1.06.4-2.06.74-3.02.34-.95.78-1.84,1.31-2.65.54-.81,1.19-1.51,1.95-2.1.76-.59,1.65-1.05,2.66-1.38s2.15-.5,3.42-.5c.87,0,1.67.1,2.42.3.74.2,1.42.49,2.03.87.61.38,1.15.83,1.62,1.35.47.52.86,1.11,1.17,1.76.39.83.98,1.5,1.76,2.01.78.51,1.65.77,2.61.77.66,0,1.29-.13,1.89-.38.6-.25,1.11-.6,1.54-1.04s.78-.95,1.04-1.53c.26-.58.39-1.21.39-1.87,0-.49-.07-.95-.2-1.4-.14-.45-.32-.86-.57-1.24-.84-1.23-1.83-2.33-2.97-3.29s-2.39-1.77-3.75-2.44-2.8-1.17-4.32-1.51c-1.52-.35-3.07-.52-4.65-.52-3.37,0-6.35.52-8.94,1.55-2.59,1.04-4.76,2.48-6.51,4.34-1.75,1.86-3.09,4.07-3.99,6.64-.91,2.57-1.36,5.4-1.36,8.47s.45,5.83,1.36,8.35c.91,2.52,2.24,4.68,3.99,6.47,1.75,1.8,3.92,3.19,6.51,4.19,2.59,1,5.57,1.49,8.94,1.49,1.77,0,3.46-.19,5.07-.56,1.61-.37,3.09-.91,4.47-1.61,1.37-.7,2.62-1.55,3.73-2.56,1.11-1.01,2.05-2.15,2.82-3.42.26-.38.45-.8.59-1.25s.2-.93.2-1.43c0-.68-.13-1.31-.39-1.91-.26-.6-.61-1.12-1.06-1.56Z"/>
    <path class="cls-2" d="M157.58,96.89c-.35-.36-.81-.64-1.36-.83-.56-.2-1.23-.3-2.01-.3h-17.09v-8.76h13.9c.79,0,1.46-.09,2.02-.28.56-.19,1.02-.46,1.36-.8s.6-.76.76-1.24c.16-.48.24-1.01.24-1.57s-.08-1.09-.24-1.56c-.16-.47-.42-.88-.76-1.23s-.8-.61-1.36-.8c-.56-.19-1.24-.28-2.02-.28h-13.9v-7.36h16.46c.79,0,1.46-.1,2.02-.3.56-.2,1.02-.47,1.37-.83.35-.36.61-.78.77-1.26.16-.48.24-1.01.24-1.57s-.08-1.1-.24-1.59c-.16-.49-.42-.91-.77-1.26-.35-.35-.81-.63-1.37-.82-.56-.2-1.24-.29-2.02-.29h-20.73c-2.15,0-3.75.55-4.78,1.66s-1.55,2.86-1.55,5.27v25.89c0,1.21.13,2.25.39,3.12.26.87.65,1.59,1.17,2.15.52.56,1.18.98,1.97,1.25s1.73.41,2.81.41h21.36c.79,0,1.46-.1,2.01-.29.55-.2,1.01-.47,1.36-.82.35-.35.61-.77.77-1.26.16-.49.24-1.02.24-1.59s-.08-1.09-.24-1.57c-.16-.48-.42-.9-.77-1.26Z"/>
    <path class="cls-2" d="M191.77,66.34c-.16-.5-.41-.93-.75-1.29-.35-.36-.81-.64-1.38-.83-.58-.2-1.28-.29-2.1-.29h-23.87c-.84,0-1.54.1-2.11.29-.57.2-1.03.47-1.37.83-.35.36-.6.79-.75,1.29-.16.5-.23,1.05-.23,1.65s.07,1.16.21,1.67.37.93.69,1.3c.32.37.73.65,1.24.84s1.13.29,1.86.29h6.91v26.66c0,1.79.47,3.13,1.42,4.02s2.26,1.34,3.92,1.34,2.98-.45,3.93-1.34c.95-.89,1.43-2.23,1.43-4.02v-26.66h7.19c.73,0,1.35-.1,1.86-.29.51-.2.92-.48,1.24-.84.32-.37.55-.8.69-1.3.14-.5.21-1.06.21-1.67s-.08-1.14-.23-1.65Z"/>
    <path class="cls-2" d="M113.93,95.12h-23.19s-.07,0-.11,0l-2.3,8.09c.69.46,1.52.72,2.41.72h23.19c2.43,0,4.41-1.97,4.41-4.41s-1.97-4.41-4.41-4.41Z"/>
    <path class="cls-2" d="M113.93,79.98h-18.98l-2.51,8.82h21.49c2.43,0,4.41-1.97,4.41-4.41s-1.97-4.41-4.41-4.41Z"/>
    <path class="cls-2" d="M113.93,63.43h-26.66c-2.24,0-4.09,1.68-4.37,3.85-.01.04-.03.08-.04.12l-5.06,20.62-5-19.59c-.18-.69-.46-1.34-.84-1.94-.39-.6-.85-1.12-1.39-1.56-.54-.44-1.15-.79-1.83-1.04s-1.39-.38-2.13-.38-1.43.12-2.09.37-1.26.58-1.8,1.01c-.54.43-.99.93-1.37,1.51-.38.58-.66,1.22-.83,1.91l-5.1,19.38-4.88-20.26c-.14-.56-.36-1.07-.66-1.55-.3-.48-.67-.9-1.11-1.25-.43-.35-.92-.63-1.46-.82-.54-.2-1.11-.29-1.71-.29-.7,0-1.36.13-1.98.4s-1.15.63-1.61,1.09c-.45.46-.81,1-1.08,1.62-.26.62-.4,1.27-.4,1.96,0,.43.05.87.16,1.3l8.05,29.65c.19.65.47,1.25.85,1.81.38.56.83,1.04,1.36,1.44.53.41,1.11.72,1.76.94.64.22,1.32.33,2.04.33s1.43-.12,2.08-.36c.66-.24,1.25-.57,1.79-.99.54-.42.99-.92,1.37-1.49.38-.58.66-1.2.83-1.88l5.65-22.37h.16l5.81,22.45c.18.66.45,1.28.82,1.85.37.57.82,1.06,1.34,1.47.52.41,1.11.74,1.76.97s1.33.35,2.05.35,1.37-.11,2.01-.33c.64-.22,1.21-.53,1.73-.93.51-.39.96-.86,1.33-1.4.37-.54.65-1.14.82-1.79l2.08-7.51,5.49-19.84h22.04c2.43,0,4.41-1.97,4.41-4.41s-1.97-4.41-4.41-4.41Z"/>
  </g>
  <g>
    <g>
      <rect class="cls-1" x="22.06" y="120.8" width="37.86" height="4.6" rx="1.15" ry="1.15"/>
      <rect class="cls-1" x="132.09" y="120.8" width="37.86" height="4.6" rx="1.15" ry="1.15"/>
    </g>
    <g>
      <path class="cls-3" d="M70.87,116.05c0-.24.04-.45.11-.64.07-.19.18-.36.31-.49.14-.14.3-.24.49-.32s.41-.11.66-.11.46.04.66.11.36.18.49.32c.13.14.24.3.31.49.07.19.11.41.11.64v10.03h5.17c.23,0,.45.03.64.09s.37.14.52.25.27.25.35.41.13.35.13.57-.04.4-.13.56-.2.3-.35.41c-.15.11-.32.19-.52.25s-.41.09-.64.09h-6.44c-.28,0-.54-.03-.77-.09-.23-.06-.42-.16-.59-.3s-.29-.33-.38-.56c-.09-.23-.13-.52-.13-.87v-10.84Z"/>
      <path class="cls-3" d="M90.7,125.34h-5.26l-.89,2.51c-.05.14-.13.28-.22.4-.09.12-.2.23-.33.32-.12.09-.26.16-.41.21-.15.05-.31.08-.47.08-.21,0-.41-.04-.59-.12-.18-.08-.34-.19-.48-.32-.14-.14-.24-.3-.32-.48-.08-.18-.12-.38-.12-.59,0-.19.03-.37.1-.55l4.31-11.07c.14-.36.35-.63.63-.83.28-.2.62-.3,1.02-.3h.73c.18,0,.36.02.53.05s.33.1.49.19.29.21.41.37c.12.16.24.35.33.59l4.28,10.98c.07.17.1.36.1.55,0,.21-.04.41-.12.59-.08.18-.19.34-.32.48s-.3.24-.48.32c-.18.08-.38.12-.59.12-.17,0-.33-.02-.48-.08s-.29-.12-.41-.21c-.12-.09-.23-.19-.33-.32-.09-.12-.17-.26-.22-.4l-.89-2.51ZM86.29,123.02h3.54l-1.75-4.95-1.79,4.95Z"/>
      <path class="cls-3" d="M101.78,114.63c.32,0,.66,0,1.04.01s.75.03,1.12.06.73.09,1.07.17c.34.08.63.19.87.33.26.15.5.33.73.54.23.2.43.44.6.7.17.26.31.55.41.87.1.32.15.66.15,1.04,0,.32-.04.62-.12.9-.08.28-.18.54-.32.78s-.3.45-.49.65c-.19.19-.4.36-.63.51.33.13.63.31.91.53.28.22.51.47.71.75.2.28.35.59.46.92.11.33.17.67.17,1.02s-.05.71-.14,1.06c-.1.35-.24.69-.43,1-.19.32-.42.62-.71.89-.28.27-.6.51-.97.71s-.78.36-1.23.47-.94.17-1.48.17h-5.18c-.25,0-.49-.05-.72-.14-.22-.1-.42-.23-.59-.39-.17-.16-.3-.35-.4-.57-.1-.22-.14-.45-.14-.7v-10.39c0-.26.05-.5.15-.73.1-.23.24-.43.41-.6.17-.17.38-.3.61-.4.23-.1.48-.15.75-.15h3.37ZM102.31,120.37c.44,0,.81-.04,1.11-.12.3-.08.55-.19.73-.34.19-.15.32-.32.41-.53.08-.2.13-.43.13-.69,0-.34-.06-.61-.18-.82-.12-.21-.29-.38-.5-.5s-.47-.2-.76-.24c-.29-.04-.6-.06-.93-.06h-2.69v3.29h2.69ZM103.25,126.26c.34,0,.64-.05.9-.14.26-.1.48-.23.66-.4s.31-.37.4-.6c.09-.23.14-.48.14-.76,0-.31-.07-.58-.22-.8-.14-.22-.33-.4-.57-.54-.24-.14-.5-.24-.8-.3-.3-.06-.59-.09-.9-.09h-3.25v3.64h3.63Z"/>
      <path class="cls-3" d="M112.95,124.63c.29.57.68,1.01,1.18,1.32.5.32,1.1.48,1.81.48.19,0,.39,0,.6-.02.21-.01.42-.04.63-.08.21-.04.41-.1.6-.17s.36-.17.51-.29c.15-.12.26-.27.35-.44.09-.17.13-.38.13-.62s-.06-.46-.17-.64c-.11-.18-.26-.34-.46-.47-.19-.13-.42-.24-.69-.33s-.56-.18-.87-.26c-.31-.08-.64-.15-.98-.23-.34-.07-.69-.15-1.04-.25-.54-.14-1.06-.32-1.56-.51-.5-.2-.94-.45-1.32-.77-.38-.31-.69-.69-.91-1.15s-.34-1.01-.34-1.67c0-.48.07-.92.22-1.32.14-.4.34-.76.6-1.07.25-.32.55-.59.9-.83.34-.24.71-.43,1.11-.59s.81-.27,1.25-.35c.43-.08.87-.12,1.3-.12.59,0,1.15.05,1.69.16.54.11,1.04.28,1.5.5.46.23.86.52,1.22.86.35.35.63.76.83,1.24.04.1.07.19.09.29.02.1.04.21.04.32,0,.21-.03.41-.1.58-.07.18-.16.33-.28.46-.12.13-.27.23-.44.3s-.37.11-.58.11c-.17,0-.33-.02-.48-.08-.15-.05-.3-.12-.42-.21-.13-.09-.25-.19-.35-.31-.1-.12-.19-.26-.26-.4-.21-.43-.54-.74-.97-.94s-.96-.3-1.58-.3c-.26,0-.52.03-.78.08-.26.05-.5.14-.71.26-.21.12-.38.27-.52.45-.13.18-.2.4-.2.66,0,.18.02.33.06.47s.12.26.23.37c.11.11.27.21.46.31.19.1.45.2.76.3.31.1.69.22,1.13.34.44.12.96.26,1.56.41.18.04.4.1.68.17.27.07.56.16.87.28s.61.27.92.46c.31.19.59.42.84.71s.45.62.6,1.02c.15.4.23.86.23,1.39,0,.65-.13,1.26-.39,1.81-.26.55-.64,1.03-1.15,1.44-.51.4-1.13.72-1.88.95-.75.23-1.61.34-2.59.34-.63,0-1.25-.07-1.85-.21-.6-.14-1.15-.35-1.65-.63-.5-.28-.95-.63-1.34-1.05-.39-.42-.69-.91-.9-1.46-.04-.1-.07-.19-.09-.29-.02-.1-.04-.21-.04-.32,0-.21.04-.41.11-.58.07-.18.18-.33.31-.46.13-.13.29-.23.47-.3.18-.07.38-.11.59-.11.34,0,.64.09.9.28.26.19.46.42.6.71Z"/>
    </g>
  </g>
</svg>