<?xml version="1.0" encoding="UTF-8"?>
<svg id="Layer_1" data-name="Layer 1" xmlns="http://www.w3.org/2000/svg" viewBox="0 0 96 96">
  <defs>
    <style>
      .cls-1 {
        fill: #f87c9d;
      }

      .cls-1, .cls-2, .cls-3, .cls-4 {
        stroke-width: 0px;
      }

      .cls-2 {
        fill: #293843;
      }

      .cls-3 {
        fill: #283a42;
      }

      .cls-4 {
        fill: #ff739d;
      }
    </style>
  </defs>
  <g>
    <path class="cls-4" d="M18.12,45.08c-.22-.22-.49-.4-.79-.53-.3-.13-.62-.19-.97-.19-.24,0-.48.03-.71.1-.23.07-.44.16-.64.28-.2.12-.37.27-.52.45-.15.18-.27.37-.36.59-.31.74-.77,1.31-1.37,1.72s-1.39.61-2.37.61-1.73-.17-2.38-.52c-.65-.35-1.19-.81-1.6-1.39-.41-.58-.71-1.23-.9-1.97-.19-.73-.28-1.49-.28-2.26,0-.54.04-1.08.12-1.61.08-.53.2-1.03.37-1.51.17-.48.39-.92.66-1.33.27-.41.59-.76.98-1.05.38-.29.83-.52,1.33-.69s1.08-.25,1.71-.25c.43,0,.84.05,1.21.15.37.1.71.25,1.02.44.3.19.57.42.81.68.23.26.43.55.58.88.2.41.49.75.88,1.01.39.26.82.39,1.31.39.33,0,.65-.06.94-.19.3-.13.56-.3.77-.52s.39-.48.52-.77c.13-.29.19-.6.19-.93,0-.24-.03-.48-.1-.7-.07-.22-.16-.43-.28-.62-.42-.62-.91-1.16-1.48-1.65s-1.19-.89-1.87-1.22-1.4-.58-2.16-.76c-.76-.17-1.53-.26-2.33-.26-1.69,0-3.18.26-4.47.78-1.29.52-2.38,1.24-3.26,2.17-.88.93-1.54,2.04-2,3.32-.45,1.29-.68,2.7-.68,4.24s.23,2.92.68,4.18c.45,1.26,1.12,2.34,2,3.24.88.9,1.96,1.6,3.26,2.09,1.29.5,2.78.75,4.47.75.89,0,1.73-.09,2.53-.28.8-.19,1.55-.45,2.23-.8.69-.35,1.31-.78,1.86-1.28.56-.5,1.03-1.08,1.41-1.71.13-.19.23-.4.29-.62s.1-.47.1-.72c0-.34-.06-.66-.19-.95-.13-.3-.3-.56-.53-.78Z"/>
    <path class="cls-2" d="M78.79,48.44c-.18-.18-.4-.32-.68-.42-.28-.1-.61-.15-1.01-.15h-8.54v-4.38h6.95c.39,0,.73-.05,1.01-.14.28-.09.51-.23.68-.4s.3-.38.38-.62c.08-.24.12-.5.12-.79s-.04-.54-.12-.78c-.08-.24-.21-.44-.38-.61s-.4-.31-.68-.4c-.28-.09-.62-.14-1.01-.14h-6.95v-3.68h8.23c.39,0,.73-.05,1.01-.15.28-.1.51-.24.69-.42.18-.18.31-.39.39-.63.08-.24.12-.5.12-.79s-.04-.55-.12-.79c-.08-.24-.21-.45-.39-.63-.18-.18-.4-.31-.69-.41-.28-.1-.62-.15-1.01-.15h-10.36c-1.08,0-1.87.28-2.39.83s-.78,1.43-.78,2.64v12.94c0,.6.06,1.12.19,1.56.13.44.32.8.58,1.08.26.28.59.49.99.62s.87.2,1.41.2h10.68c.39,0,.73-.05,1.01-.15.28-.1.5-.24.68-.41.18-.18.3-.39.39-.63.08-.24.12-.51.12-.79s-.04-.55-.12-.79c-.08-.24-.21-.45-.39-.63Z"/>
    <path class="cls-2" d="M95.88,33.17c-.08-.25-.2-.47-.38-.65-.17-.18-.4-.32-.69-.42-.29-.1-.64-.15-1.05-.15h-11.94c-.42,0-.77.05-1.06.15-.28.1-.51.24-.69.42-.17.18-.3.39-.38.65-.08.25-.12.52-.12.82s.04.58.11.83.19.47.35.65c.16.18.37.32.62.42s.56.15.93.15h3.45v13.33c0,.89.24,1.56.71,2.01s1.13.67,1.96.67,1.49-.22,1.97-.67c.48-.45.72-1.12.72-2.01v-13.33h3.6c.37,0,.68-.05.93-.15.25-.1.46-.24.62-.42.16-.18.27-.4.35-.65.07-.25.11-.53.11-.83s-.04-.57-.12-.82Z"/>
    <path class="cls-2" d="M56.97,47.56h-11.59s-.04,0-.06,0l-1.15,4.05c.35.23.76.36,1.21.36h11.59c1.22,0,2.2-.99,2.2-2.2s-.99-2.2-2.2-2.2Z"/>
    <path class="cls-2" d="M56.97,39.99h-9.49l-1.26,4.41h10.75c1.22,0,2.2-.99,2.2-2.2s-.99-2.2-2.2-2.2Z"/>
    <path class="cls-2" d="M56.97,31.71h-13.33c-1.12,0-2.05.84-2.18,1.92,0,.02-.01.04-.02.06l-2.53,10.31-2.5-9.79c-.09-.35-.23-.67-.42-.97-.19-.3-.43-.56-.7-.78-.27-.22-.58-.39-.91-.52s-.69-.19-1.07-.19-.71.06-1.05.18-.63.29-.9.5c-.27.21-.5.47-.69.76-.19.29-.33.61-.42.95l-2.55,9.69-2.44-10.13c-.07-.28-.18-.54-.33-.78-.15-.24-.34-.45-.55-.62-.22-.18-.46-.31-.73-.41-.27-.1-.56-.15-.85-.15-.35,0-.68.07-.99.2s-.58.31-.8.54c-.23.23-.41.5-.54.81-.13.31-.2.64-.2.98,0,.22.03.43.08.65l4.02,14.82c.09.33.24.63.43.9.19.28.42.52.68.72.26.2.56.36.88.47.32.11.66.17,1.02.17s.71-.06,1.04-.18c.33-.12.63-.28.89-.49.27-.21.5-.46.69-.75.19-.29.33-.6.42-.94l2.82-11.19h.08l2.91,11.23c.09.33.23.64.41.92.19.28.41.53.67.74.26.21.55.37.88.48s.67.17,1.03.17.69-.06,1.01-.17c.32-.11.61-.27.86-.46.26-.2.48-.43.67-.7.19-.27.32-.57.41-.89l1.04-3.76,2.75-9.92h11.02c1.22,0,2.2-.99,2.2-2.2s-.99-2.2-2.2-2.2Z"/>
  </g>
  <g>
    <g>
      <rect class="cls-1" x="11.03" y="60.4" width="18.93" height="2.3" rx="1.15" ry="1.15"/>
      <rect class="cls-1" x="66.04" y="60.4" width="18.93" height="2.3" rx="1.15" ry="1.15"/>
    </g>
    <g>
      <path class="cls-3" d="M35.43,58.02c0-.12.02-.22.05-.32.04-.1.09-.18.16-.25.07-.07.15-.12.25-.16s.21-.06.33-.06.23.02.33.06.18.09.24.16c.07.07.12.15.15.25.04.1.05.2.05.32v5.02h2.59c.12,0,.22.01.32.04s.19.07.26.13.13.12.18.21.06.18.06.28-.02.2-.06.28-.1.15-.18.21c-.07.06-.16.1-.26.13s-.21.04-.32.04h-3.22c-.14,0-.27-.01-.38-.05-.11-.03-.21-.08-.29-.15s-.14-.16-.19-.28c-.04-.12-.07-.26-.07-.43v-5.42Z"/>
      <path class="cls-3" d="M45.35,62.67h-2.63l-.45,1.26c-.03.07-.06.14-.11.2-.05.06-.1.11-.16.16-.06.04-.13.08-.21.1-.08.03-.15.04-.24.04-.11,0-.2-.02-.3-.06-.09-.04-.17-.09-.24-.16-.07-.07-.12-.15-.16-.24-.04-.09-.06-.19-.06-.3,0-.1.02-.19.05-.27l2.15-5.53c.07-.18.17-.32.31-.41.14-.1.31-.15.51-.15h.37c.09,0,.18,0,.27.03s.17.05.24.1.14.11.21.19c.06.08.12.18.17.3l2.14,5.49c.03.09.05.18.05.27,0,.11-.02.2-.06.3-.04.09-.09.17-.16.24s-.15.12-.24.16c-.09.04-.19.06-.29.06-.08,0-.16-.01-.24-.04s-.14-.06-.21-.1c-.06-.04-.12-.1-.16-.16-.05-.06-.08-.13-.11-.2l-.45-1.26ZM43.14,61.51h1.77l-.87-2.47-.89,2.47Z"/>
      <path class="cls-3" d="M50.89,57.32c.16,0,.33,0,.52,0s.37.01.56.03.36.05.53.08c.17.04.31.09.44.17.13.08.25.17.37.27.12.1.22.22.3.35.09.13.15.28.21.44.05.16.08.33.08.52,0,.16-.02.31-.06.45-.04.14-.09.27-.16.39s-.15.23-.25.32c-.09.1-.2.18-.32.25.17.07.32.16.46.27.14.11.26.24.36.38.1.14.18.29.23.46.06.17.08.34.08.51s-.02.35-.07.53c-.05.18-.12.34-.21.5-.09.16-.21.31-.35.44-.14.14-.3.26-.49.35s-.39.18-.61.23-.47.08-.74.08h-2.59c-.13,0-.25-.02-.36-.07-.11-.05-.21-.11-.29-.19-.08-.08-.15-.18-.2-.29-.05-.11-.07-.23-.07-.35v-5.2c0-.13.03-.25.08-.37.05-.11.12-.21.21-.3.09-.09.19-.15.3-.2.12-.05.24-.07.37-.07h1.68ZM51.15,60.18c.22,0,.4-.02.55-.06.15-.04.27-.1.37-.17.09-.07.16-.16.2-.26.04-.1.06-.22.06-.34,0-.17-.03-.3-.09-.41-.06-.11-.15-.19-.25-.25s-.23-.1-.38-.12c-.15-.02-.3-.03-.47-.03h-1.34v1.65h1.34ZM51.63,63.13c.17,0,.32-.02.45-.07.13-.05.24-.11.33-.2s.15-.19.2-.3c.05-.12.07-.24.07-.38,0-.16-.04-.29-.11-.4-.07-.11-.17-.2-.28-.27-.12-.07-.25-.12-.4-.15-.15-.03-.3-.05-.45-.05h-1.62v1.82h1.81Z"/>
      <path class="cls-3" d="M56.48,62.31c.14.28.34.5.59.66.25.16.55.24.9.24.09,0,.19,0,.3,0,.11,0,.21-.02.32-.04.1-.02.2-.05.3-.08s.18-.08.25-.14c.07-.06.13-.13.18-.22.04-.09.07-.19.07-.31s-.03-.23-.08-.32c-.06-.09-.13-.17-.23-.23-.1-.07-.21-.12-.35-.17s-.28-.09-.43-.13c-.16-.04-.32-.08-.49-.11-.17-.04-.35-.08-.52-.12-.27-.07-.53-.16-.78-.26-.25-.1-.47-.23-.66-.38-.19-.16-.34-.35-.46-.57s-.17-.5-.17-.83c0-.24.04-.46.11-.66.07-.2.17-.38.3-.54.13-.16.28-.3.45-.42.17-.12.36-.22.56-.3s.41-.14.62-.17c.22-.04.43-.06.65-.06.29,0,.57.03.85.08.27.05.52.14.75.25.23.11.43.26.61.43.18.17.32.38.42.62.02.05.03.1.05.15.01.05.02.1.02.16,0,.11-.02.2-.05.29-.03.09-.08.17-.14.23-.06.06-.14.12-.22.15s-.18.05-.29.05c-.08,0-.16-.01-.24-.04-.08-.03-.15-.06-.21-.1-.06-.04-.12-.1-.17-.16-.05-.06-.09-.13-.13-.2-.11-.21-.27-.37-.49-.47s-.48-.15-.79-.15c-.13,0-.26.01-.39.04-.13.03-.25.07-.35.13-.11.06-.19.13-.26.22-.07.09-.1.2-.1.33,0,.09.01.17.03.23s.06.13.12.18c.06.06.13.11.23.15.1.05.22.1.38.15.16.05.34.11.57.17.22.06.48.13.78.21.09.02.2.05.34.08.14.03.28.08.43.14s.31.14.46.23c.15.09.29.21.42.35s.22.31.3.51c.08.2.12.43.12.7,0,.33-.06.63-.19.91-.13.28-.32.52-.57.72-.25.2-.57.36-.94.47-.37.11-.81.17-1.3.17-.32,0-.62-.04-.92-.11-.3-.07-.57-.18-.83-.32-.25-.14-.47-.32-.67-.53-.19-.21-.34-.45-.45-.73-.02-.05-.03-.1-.05-.15-.01-.05-.02-.1-.02-.16,0-.11.02-.2.06-.29.04-.09.09-.17.16-.23.07-.06.15-.12.24-.15.09-.04.19-.05.29-.05.17,0,.32.05.45.14.13.09.23.21.3.36Z"/>
    </g>
  </g>
</svg>