<?xml version="1.0" encoding="UTF-8"?>
<svg id="Layer_1" data-name="Layer 1" xmlns="http://www.w3.org/2000/svg" viewBox="0 0 167 167">
  <defs>
    <style>
      .cls-1 {
        fill: #f87c9d;
      }

      .cls-1, .cls-2, .cls-3, .cls-4 {
        stroke-width: 0px;
      }

      .cls-2 {
        fill: #293843;
      }

      .cls-3 {
        fill: #283a42;
      }

      .cls-4 {
        fill: #ff739d;
      }
    </style>
  </defs>
  <g>
    <path class="cls-4" d="M31.53,78.41c-.39-.39-.85-.7-1.37-.92-.52-.22-1.09-.34-1.69-.34-.42,0-.83.06-1.23.18-.39.12-.76.28-1.1.49-.34.21-.64.47-.91.78-.27.31-.47.65-.63,1.02-.54,1.28-1.33,2.28-2.38,3s-2.42,1.07-4.13,1.07-3.01-.3-4.14-.91c-1.14-.61-2.06-1.41-2.78-2.41-.72-1-1.24-2.14-1.56-3.42-.32-1.28-.49-2.59-.49-3.93,0-.94.07-1.87.2-2.79.14-.92.35-1.79.65-2.62.29-.83.67-1.6,1.14-2.31.47-.71,1.03-1.32,1.7-1.83.67-.51,1.44-.91,2.31-1.2s1.87-.43,2.98-.43c.75,0,1.45.09,2.1.27.65.18,1.24.43,1.77.76.53.33,1,.72,1.41,1.18.41.45.75.96,1.02,1.53.34.72.85,1.3,1.53,1.75.68.45,1.43.67,2.27.67.58,0,1.12-.11,1.64-.33.52-.22.97-.52,1.34-.9s.68-.83.9-1.33c.22-.51.34-1.05.34-1.63,0-.42-.06-.83-.18-1.22-.12-.39-.28-.75-.49-1.08-.73-1.07-1.59-2.03-2.58-2.86s-2.08-1.54-3.26-2.12-2.44-1.02-3.76-1.32c-1.32-.3-2.67-.45-4.05-.45-2.93,0-5.53.45-7.78,1.35-2.25.9-4.14,2.16-5.66,3.77-1.53,1.61-2.68,3.54-3.47,5.78-.79,2.24-1.18,4.7-1.18,7.37s.39,5.07,1.18,7.26c.79,2.19,1.95,4.07,3.47,5.63,1.53,1.56,3.41,2.77,5.66,3.64,2.25.87,4.84,1.3,7.78,1.3,1.54,0,3.01-.16,4.41-.49,1.4-.32,2.69-.79,3.89-1.4,1.2-.61,2.28-1.35,3.24-2.23.97-.88,1.78-1.87,2.46-2.98.22-.33.39-.69.51-1.09s.18-.81.18-1.25c0-.59-.11-1.14-.34-1.66-.22-.52-.53-.97-.92-1.36Z"/>
    <path class="cls-2" d="M137.06,84.27c-.31-.31-.7-.55-1.18-.72-.48-.17-1.07-.26-1.75-.26h-14.86v-7.62h12.09c.68,0,1.27-.08,1.76-.25.49-.17.88-.4,1.18-.7s.52-.66.66-1.08c.14-.42.21-.88.21-1.37s-.07-.95-.21-1.36c-.14-.41-.36-.77-.66-1.07s-.7-.53-1.18-.7c-.49-.16-1.08-.25-1.76-.25h-12.09v-6.4h14.32c.68,0,1.27-.09,1.76-.26.49-.17.89-.41,1.19-.72.31-.31.53-.68.67-1.1.14-.42.21-.88.21-1.37s-.07-.95-.21-1.38c-.14-.42-.36-.79-.67-1.1-.31-.31-.7-.54-1.19-.72-.49-.17-1.08-.26-1.76-.26h-18.03c-1.87,0-3.26.48-4.16,1.44s-1.35,2.49-1.35,4.59v22.52c0,1.05.11,1.95.34,2.71.22.76.56,1.38,1.02,1.87.45.49,1.02.85,1.71,1.09s1.5.35,2.45.35h18.57c.68,0,1.27-.09,1.75-.26.48-.17.88-.41,1.18-.72.31-.31.53-.67.67-1.1.14-.42.21-.88.21-1.38s-.07-.95-.21-1.37c-.14-.42-.37-.78-.67-1.1Z"/>
    <path class="cls-2" d="M166.8,57.7c-.14-.44-.35-.81-.65-1.12-.3-.31-.7-.55-1.2-.73-.5-.17-1.11-.26-1.83-.26h-20.77c-.73,0-1.34.09-1.84.26-.49.17-.89.41-1.19.73-.3.31-.52.69-.65,1.12-.14.44-.2.91-.2,1.43s.06,1.01.19,1.45.32.81.6,1.13c.28.32.64.56,1.08.73s.98.26,1.62.26h6.01v23.19c0,1.56.41,2.72,1.24,3.5s1.96,1.17,3.41,1.17,2.59-.39,3.42-1.17c.83-.78,1.25-1.94,1.25-3.5v-23.19h6.26c.64,0,1.18-.09,1.62-.26.44-.17.8-.42,1.08-.73.28-.32.48-.7.6-1.13.12-.44.19-.92.19-1.45s-.07-1-.2-1.43Z"/>
    <path class="cls-2" d="M99.1,82.74h-20.17s-.06,0-.1,0l-2,7.04c.6.4,1.32.63,2.1.63h20.17c2.12,0,3.83-1.72,3.83-3.83s-1.72-3.83-3.83-3.83Z"/>
    <path class="cls-2" d="M99.1,69.57h-16.51l-2.18,7.67h18.69c2.12,0,3.83-1.72,3.83-3.83s-1.72-3.83-3.83-3.83Z"/>
    <path class="cls-2" d="M99.1,55.17h-23.19c-1.95,0-3.56,1.46-3.8,3.35,0,.04-.03.07-.03.1l-4.4,17.94-4.35-17.04c-.15-.6-.4-1.16-.73-1.69-.34-.52-.74-.98-1.21-1.36-.47-.38-1-.68-1.59-.9s-1.21-.33-1.86-.33-1.24.11-1.82.32-1.1.5-1.56.88c-.47.37-.86.81-1.19,1.32-.33.51-.57,1.06-.72,1.66l-4.44,16.86-4.24-17.62c-.12-.48-.31-.93-.57-1.35-.27-.42-.59-.78-.96-1.09-.38-.31-.8-.55-1.27-.72-.47-.17-.97-.26-1.48-.26-.61,0-1.19.11-1.72.34s-1,.55-1.4.95c-.39.4-.71.87-.94,1.41-.23.54-.34,1.1-.34,1.71,0,.38.05.75.14,1.13l7,25.79c.17.57.41,1.09.74,1.57.33.48.72.9,1.18,1.26.46.35.97.63,1.53.82.56.19,1.15.29,1.78.29s1.24-.1,1.81-.31c.57-.21,1.09-.49,1.56-.86.47-.36.86-.8,1.19-1.3.33-.5.57-1.05.72-1.63l4.91-19.46h.14l5.05,19.53c.15.58.39,1.11.72,1.61.32.49.71.92,1.17,1.28.45.36.96.64,1.53.84s1.16.3,1.78.3,1.2-.1,1.75-.29c.55-.19,1.05-.46,1.5-.8.45-.34.83-.75,1.16-1.22.32-.47.56-.99.72-1.55l1.81-6.53,4.78-17.26h19.17c2.12,0,3.83-1.72,3.83-3.83s-1.72-3.83-3.83-3.83Z"/>
  </g>
  <g>
    <g>
      <rect class="cls-1" x="19.18" y="105.07" width="32.93" height="4" rx="1.15" ry="1.15"/>
      <rect class="cls-1" x="114.89" y="105.07" width="32.93" height="4" rx="1.15" ry="1.15"/>
    </g>
    <g>
      <path class="cls-3" d="M61.64,100.94c0-.2.03-.39.09-.56.06-.17.15-.31.27-.43.12-.12.26-.21.43-.28s.36-.1.57-.1.4.03.57.1.31.16.43.28c.12.12.21.26.27.43.06.17.09.35.09.56v8.72h4.5c.2,0,.39.03.56.08s.32.12.45.22.23.22.31.36.11.31.11.49-.04.35-.11.49-.18.26-.31.36c-.13.1-.28.17-.45.22s-.36.08-.56.08h-5.6c-.25,0-.47-.03-.67-.08-.2-.05-.37-.14-.51-.26s-.25-.29-.33-.49c-.08-.2-.12-.45-.12-.75v-9.43Z"/>
      <path class="cls-3" d="M78.89,109.02h-4.58l-.78,2.19c-.05.13-.11.24-.19.35-.08.11-.18.2-.28.28-.11.08-.23.14-.36.18-.13.04-.27.07-.41.07-.18,0-.36-.03-.51-.1-.16-.07-.3-.16-.42-.28-.12-.12-.21-.26-.28-.42-.07-.16-.1-.33-.1-.51,0-.17.03-.33.09-.48l3.75-9.63c.12-.31.3-.55.55-.72.24-.17.54-.26.89-.26h.64c.16,0,.31.02.46.05s.29.09.42.17.25.19.36.32c.11.14.2.31.29.52l3.73,9.55c.06.15.09.31.09.48,0,.18-.03.36-.1.51-.07.16-.16.3-.28.42s-.26.21-.42.28c-.16.07-.33.1-.51.1-.15,0-.28-.02-.41-.07s-.25-.1-.36-.18c-.11-.08-.2-.17-.28-.28-.08-.11-.15-.22-.19-.35l-.78-2.19ZM75.05,107h3.08l-1.52-4.3-1.55,4.3Z"/>
      <path class="cls-3" d="M88.53,99.7c.28,0,.58,0,.9,0s.65.03.97.06.63.08.93.15c.29.07.55.16.76.29.23.13.44.29.64.47.2.18.38.38.53.61.15.23.27.48.36.76.09.28.13.58.13.9,0,.28-.03.54-.1.78-.07.24-.16.47-.28.68s-.26.39-.43.56c-.17.17-.35.32-.55.44.29.12.55.27.79.46.24.19.45.41.62.65.17.24.31.51.4.8.1.29.14.58.14.89s-.04.62-.13.92c-.08.3-.21.6-.37.87-.17.28-.37.54-.61.77-.24.24-.53.44-.85.62s-.68.31-1.07.41-.82.15-1.28.15h-4.5c-.22,0-.43-.04-.62-.13-.19-.08-.36-.2-.51-.34-.15-.14-.26-.31-.34-.5-.08-.19-.13-.39-.13-.61v-9.04c0-.23.04-.44.13-.64.09-.2.21-.37.36-.52.15-.15.33-.27.53-.35.2-.09.42-.13.65-.13h2.93ZM88.99,104.7c.38,0,.7-.03.96-.1.26-.07.48-.17.64-.29.16-.13.28-.28.35-.46.07-.18.11-.38.11-.6,0-.29-.05-.53-.16-.71-.11-.18-.25-.33-.44-.43s-.41-.17-.66-.21c-.25-.04-.52-.05-.81-.05h-2.34v2.86h2.34ZM89.81,109.82c.3,0,.56-.04.79-.13.23-.08.42-.2.57-.35s.27-.32.35-.52c.08-.2.12-.42.12-.66,0-.27-.06-.5-.19-.7-.13-.19-.29-.35-.49-.47-.2-.12-.44-.21-.69-.26-.26-.05-.52-.08-.78-.08h-2.82v3.16h3.16Z"/>
      <path class="cls-3" d="M98.24,108.4c.25.49.59.88,1.03,1.15.43.28.96.41,1.57.41.16,0,.34,0,.52-.02.19-.01.37-.03.55-.07.18-.04.36-.08.52-.15s.31-.15.44-.25c.13-.1.23-.23.31-.39.08-.15.12-.33.12-.54s-.05-.4-.14-.56c-.1-.16-.23-.29-.4-.41-.17-.11-.37-.21-.6-.29s-.48-.15-.75-.22c-.27-.07-.56-.13-.86-.2-.3-.06-.6-.13-.91-.21-.47-.13-.92-.27-1.35-.45-.43-.17-.82-.4-1.15-.67-.33-.27-.6-.6-.8-1s-.3-.88-.3-1.45c0-.42.06-.8.19-1.15.13-.35.3-.66.52-.93.22-.28.48-.52.78-.72.3-.21.62-.38.97-.51s.71-.24,1.09-.3c.38-.07.75-.1,1.13-.1.51,0,1,.05,1.47.14.47.09.91.24,1.31.44.4.2.75.45,1.06.75.31.3.55.66.72,1.07.03.08.06.17.08.26.02.09.03.18.03.28,0,.18-.03.35-.09.51-.06.15-.14.29-.25.4-.11.11-.24.2-.39.26s-.32.09-.5.09c-.15,0-.29-.02-.42-.07-.13-.04-.26-.1-.37-.18-.11-.08-.21-.17-.3-.27-.09-.11-.16-.22-.23-.35-.18-.37-.47-.64-.85-.82s-.84-.26-1.37-.26c-.23,0-.45.02-.68.07-.23.05-.43.12-.62.22-.18.1-.33.23-.45.39-.12.16-.18.35-.18.58,0,.15.02.29.05.41s.1.22.2.32c.1.1.23.19.4.27.17.08.39.17.66.26.27.09.6.19.98.29.38.1.84.22,1.36.36.15.04.35.09.59.14.24.06.49.14.75.24s.53.24.8.4c.27.16.51.37.73.61s.39.54.52.89c.13.34.2.75.2,1.21,0,.57-.11,1.09-.34,1.58-.23.48-.56.9-1,1.25-.44.35-.99.63-1.64.82-.65.2-1.4.3-2.25.3-.55,0-1.09-.06-1.61-.18-.52-.12-1-.31-1.44-.55-.44-.24-.83-.55-1.16-.91-.34-.37-.6-.79-.78-1.27-.03-.08-.06-.17-.08-.26-.02-.09-.03-.18-.03-.28,0-.18.03-.35.1-.51.06-.15.16-.29.27-.4.12-.11.25-.2.41-.26.16-.06.33-.09.51-.09.3,0,.56.08.78.24.23.16.4.37.53.62Z"/>
    </g>
  </g>
</svg>